<svg width="680" height="420" viewBox="0 0 680 420" fill="none" xmlns="http://www.w3.org/2000/svg">
  <rect x="20" y="20" width="640" height="380" rx="28" fill="#F8FAFC"/>
  <rect x="54" y="60" width="572" height="300" rx="24" fill="#FDF2F8" stroke="#FBCFE8" stroke-width="2"/>

  <circle cx="180" cy="170" r="34" fill="#0F172A"/>
  <rect x="150" y="206" width="60" height="58" rx="24" fill="#0F172A"/>

  <circle cx="340" cy="146" r="34" fill="#115E59"/>
  <rect x="310" y="182" width="60" height="58" rx="24" fill="#115E59"/>

  <circle cx="500" cy="190" r="34" fill="#BE123C"/>
  <rect x="470" y="226" width="60" height="58" rx="24" fill="#BE123C"/>

  <path d="M212 164L306 146" stroke="#0D9488" stroke-width="8" stroke-linecap="round"/>
  <path d="M372 150L466 182" stroke="#FB7185" stroke-width="8" stroke-linecap="round"/>
  <path d="M212 230L470 254" stroke="#334155" stroke-width="6" stroke-linecap="round" stroke-dasharray="10 10"/>

  <rect x="262" y="276" width="156" height="56" rx="16" fill="#FFFFFF" stroke="#CBD5E1" stroke-width="2"/>
  <circle cx="292" cy="304" r="8" fill="#0D9488"/>
  <circle cx="326" cy="304" r="8" fill="#0D9488"/>
  <circle cx="360" cy="304" r="8" fill="#FB7185"/>
</svg>
