<svg width="760" height="520" viewBox="0 0 760 520" fill="none" xmlns="http://www.w3.org/2000/svg">
  <defs>
    <linearGradient id="bg" x1="80" y1="40" x2="680" y2="460" gradientUnits="userSpaceOnUse">
      <stop stop-color="#E6FFFA"/>
      <stop offset="0.5" stop-color="#FDE8F0"/>
      <stop offset="1" stop-color="#EEF2FF"/>
    </linearGradient>
    <linearGradient id="card" x1="260" y1="140" x2="520" y2="360" gradientUnits="userSpaceOnUse">
      <stop stop-color="#FFFFFF"/>
      <stop offset="1" stop-color="#F8FAFC"/>
    </linearGradient>
  </defs>

  <rect x="24" y="24" width="712" height="472" rx="36" fill="url(#bg)"/>
  <circle cx="134" cy="130" r="56" fill="#14B8A61A"/>
  <circle cx="624" cy="420" r="72" fill="#FB71851A"/>

  <rect x="212" y="120" width="336" height="272" rx="28" fill="url(#card)" stroke="#CBD5E1" stroke-width="2"/>
  <rect x="256" y="178" width="122" height="82" rx="14" fill="#ECFEFF" stroke="#99F6E4" stroke-width="2"/>
  <rect x="392" y="178" width="122" height="82" rx="14" fill="#FFF1F2" stroke="#FDA4AF" stroke-width="2"/>
  <rect x="256" y="278" width="258" height="16" rx="8" fill="#E2E8F0"/>
  <rect x="256" y="306" width="202" height="12" rx="6" fill="#E2E8F0"/>

  <circle cx="316" cy="219" r="20" fill="#0F172A"/>
  <rect x="298" y="244" width="36" height="26" rx="13" fill="#0F172A"/>

  <circle cx="450" cy="219" r="20" fill="#1E3A8A"/>
  <rect x="432" y="244" width="36" height="26" rx="13" fill="#1E3A8A"/>

  <path d="M140 398C184 354 248 340 310 350" stroke="#0F766E" stroke-width="10" stroke-linecap="round"/>
  <circle cx="138" cy="398" r="16" fill="#0F766E"/>

  <path d="M470 360L540 420" stroke="#F43F5E" stroke-width="10" stroke-linecap="round"/>
  <circle cx="540" cy="420" r="16" fill="#F43F5E"/>
</svg>
